<?xml version="1.0" encoding="UTF-8"?><svg id="Laag_1" xmlns="http://www.w3.org/2000/svg" viewBox="0 0 1759.94 855.73"><defs><style>.cls-1{fill:#fff;}</style></defs><path class="cls-1" d="m452.09,60.64v277.59c0,3.57.31,7.12.94,10.63l39.33,220.83c2.33,13.19-6.44,25.78-19.62,28.13-1.46.26-2.88.38-4.3.38-11.53,0-21.75-8.25-23.85-20.02l-40.04-224.92c-.31-3.55-.63-7.08-.94-10.63V60.64c0-33.49-27.15-60.64-60.64-60.64H60.64C27.15,0,0,27.15,0,60.64v734.44c0,33.49,27.15,60.64,60.64,60.64h734.44c33.49,0,60.64-27.15,60.64-60.64V60.64c0-33.49-27.15-60.64-60.64-60.64h-282.35c-33.49,0-60.64,27.15-60.64,60.64Z"/><path class="cls-1" d="m1386.1,362.87l-118.41-118.39c-9.48-9.48-9.48-24.83,0-34.31,9.4-9.48,24.79-9.48,34.27,0l104.2,104.18c11.37,11.37,26.8,17.76,42.88,17.76h250.26c33.49,0,60.64-27.15,60.64-60.64V60.64c0-33.49-27.15-60.64-60.64-60.64h-734.44c-33.49,0-60.64,27.15-60.64,60.64v353.82c0,33.49,27.15,60.64,60.64,60.64h270.34c16.08,0,31.51,6.39,42.88,17.76l118.37,118.37c9.48,9.48,9.48,24.83,0,34.31-4.74,4.74-10.94,7.11-17.13,7.11s-12.4-2.37-17.13-7.11l-104.16-104.16c-11.37-11.37-26.8-17.76-42.88-17.76h-250.28c-33.49,0-60.64,27.15-60.64,60.64v210.81c0,33.49,27.15,60.64,60.64,60.64h734.44c33.49,0,60.64-27.15,60.64-60.64v-353.81c0-33.49-27.15-60.64-60.64-60.64h-270.32c-16.08,0-31.51-6.39-42.88-17.76Z"/></svg>