<svg width="83" height="40" viewBox="0 0 83 40" fill="none" xmlns="http://www.w3.org/2000/svg">
<path d="M21.1326 2.83457V15.8103C21.1326 15.9772 21.1471 16.1431 21.1766 16.3072L23.015 26.6297C23.1239 27.2463 22.714 27.8348 22.0979 27.9447C22.0296 27.9568 21.9633 27.9624 21.8969 27.9624C21.3579 27.9624 20.8802 27.5768 20.782 27.0266L18.9104 16.5129C18.8959 16.3469 18.8809 16.1819 18.8665 16.016V2.83457C18.8665 1.26911 17.5973 0 16.0319 0H2.83457C1.26911 0 0 1.26911 0 2.83457V37.1654C0 38.7309 1.26911 40 2.83457 40H37.1654C38.7309 40 40 38.7309 40 37.1654V2.83457C40 1.26911 38.7309 0 37.1654 0H23.9672C22.4017 0 21.1326 1.26911 21.1326 2.83457Z" fill="#232526"/>
<path d="M64.7922 16.9621L59.2572 11.428C58.8141 10.9849 58.8141 10.2674 59.2572 9.82424C59.6966 9.3811 60.416 9.3811 60.8592 9.82424L65.7299 14.6941C66.2614 15.2255 66.9827 15.5242 67.7343 15.5242H79.4325C80.998 15.5242 82.2671 14.2551 82.2671 12.6897V2.83457C82.2671 1.26911 80.998 0 79.4325 0H45.1017C43.5362 0 42.2671 1.26911 42.2671 2.83457V19.3736C42.2671 20.9391 43.5362 22.2082 45.1017 22.2082H57.7385C58.4902 22.2082 59.2114 22.5069 59.7429 23.0384L65.276 28.5715C65.7192 29.0146 65.7192 29.7322 65.276 30.1753C65.0545 30.3969 64.7646 30.5076 64.4753 30.5076C64.1859 30.5076 63.8957 30.3969 63.6746 30.1753L58.8057 25.3064C58.2742 24.7749 57.5529 24.4762 56.8013 24.4762H45.1021C43.5367 24.4762 42.2676 25.7453 42.2676 27.3108V37.165C42.2676 38.7304 43.5367 39.9995 45.1021 39.9995H79.433C80.9985 39.9995 82.2676 38.7304 82.2676 37.165V20.6264C82.2676 19.0609 80.9985 17.7918 79.433 17.7918H66.7971C66.0454 17.7918 65.3242 17.4931 64.7927 16.9616L64.7922 16.9621Z" fill="#232526"/>
</svg>
